<!--?xml version="1.0" encoding="utf-8"?-->
<!-- Generator: Adobe Illustrator 18.1.1, SVG Export Plug-In . SVG Version: 6.00 Build 0)  -->

<svg version="1.1" id="_x32_" xmlns="http://www.w3.org/2000/svg" xmlns:xlink="http://www.w3.org/1999/xlink" x="0px" y="0px" viewBox="0 0 512 512" style="width: 256px; height: 256px; opacity: 1;" xml:space="preserve">
<style type="text/css">
	.st0{fill:#4B4B4B;}

</style>
<g>
	<path class="st0" d="M468.721,218.548c-9.352-11.977-23.721-18.99-38.926-18.99h-68.552L347.7,78.027l-0.07-0.411
		C340.16,32.823,301.414,0,256,0c-45.414,0-84.16,32.823-91.623,77.616l-0.07,0.397L150.76,199.566H82.208
		c-15.209-0.008-29.574,7.005-38.94,18.997c-6.851,8.772-10.46,19.496-10.46,30.402c0,3.991,0.484,8.017,1.47,11.971L77.95,435.63
		C89.177,480.505,129.5,512,175.768,512h160.464c46.272,0,86.591-31.495,97.822-76.37l43.667-174.687
		c0.987-3.96,1.471-7.987,1.471-11.978C479.191,238.059,475.586,227.328,468.721,218.548z M194.248,82.355
		c5.124-30.08,31.202-52.122,61.752-52.122c30.55,0,56.636,22.041,61.76,52.122l13.063,117.203L256,199.566h-74.822L194.248,82.355z
		 M448.385,253.616l-43.672,174.679c-7.848,31.422-36.091,53.47-68.482,53.47v-0.007H175.768
		c-32.391,0.007-60.63-22.041-68.478-53.464L63.618,253.609c-0.392-1.54-0.572-3.095-0.572-4.643c0-4.232,1.397-8.398,4.048-11.787
		c3.646-4.665,9.213-7.378,15.113-7.378H256h173.796c5.897,0,11.468,2.714,15.106,7.378c2.651,3.382,4.056,7.54,4.056,11.787
		C448.957,250.514,448.766,252.076,448.385,253.616z" style="fill:#5f5a51;"></path>
	<path class="st0" d="M302.991,265.198c-3.796-2.494-8.586-2.897-12.744-1.1l-34.25,14.816l-34.246-14.816
		c-4.152-1.798-8.949-1.394-12.741,1.1c-3.796,2.487-6.077,6.719-6.077,11.252v31.862c0,4.533,2.281,8.765,6.077,11.251
		c3.792,2.494,8.589,2.904,12.741,1.116l34.246-14.831l34.25,14.831c4.159,1.789,8.948,1.379,12.744-1.116
		c3.792-2.486,6.076-6.718,6.076-11.251V276.45C309.067,271.917,306.783,267.684,302.991,265.198z" style="fill:#5f5a51;"></path>
</g>
</svg>
