<?xml version="1.0" encoding="utf-8"?>
<!-- Generator: Adobe Illustrator 27.0.1, SVG Export Plug-In . SVG Version: 6.00 Build 0)  -->
<svg version="1.1" id="グループ_1" xmlns="http://www.w3.org/2000/svg" xmlns:xlink="http://www.w3.org/1999/xlink" x="0px"
	 y="0px" viewBox="0 0 800 350" style="enable-background:new 0 0 800 350;" xml:space="preserve">
<style type="text/css">
	.st0{enable-background:new    ;}
	.st1{fill:#FFFFFF;}
	.st2{fill-rule:evenodd;clip-rule:evenodd;fill:#FFFFFF;stroke:#FFFFFF;}
	.st3{fill-rule:evenodd;clip-rule:evenodd;fill:#FFFFFF;}
</style>
<image style="overflow:visible;enable-background:new    ;" width="800" height="350" id="背景" xlink:href="5FEBDC9C.png" >
</image>
<image style="overflow:visible;enable-background:new    ;" width="1282" height="961" id="bradford" xlink:href="5FEBDC9D.png"  transform="matrix(1 0 0 1 -259 -105)">
</image>
<g class="st0">
	<path class="st1" d="M24.6,49.7v-4.8h33l3.3-0.7l2.4,2.2C62.7,65.6,52.5,78,32.7,83.6l-3.9-4.8C47,74.7,56.5,65,57.4,49.7H24.6z
		 M58.9,44.2c-1.9-2-3.8-3.9-5.7-5.5l2.6-2.6c2,1.6,4,3.5,5.9,5.7L58.9,44.2z M66.8,43.5c-2.3-2.6-4.5-4.8-6.6-6.6l2.6-2.2
		c2.3,1.8,4.5,3.9,6.6,6.3L66.8,43.5z"/>
	<path class="st1" d="M83.2,82.5c14.1-3.6,22.1-11.3,23.8-23H73.8v-4.8h33.5l2-0.7l3.9,2.4c0.9,0.7,0.7,1.4-0.4,2
		c-2.3,14.6-10.9,24.1-25.6,28.4L83.2,82.5z M107.9,47H77.8v-4.8H108L107.9,47L107.9,47z"/>
	<path class="st1" d="M118.9,56.4l4.4-2.2c2,2.8,3.9,6.1,5.5,10.1l-4.4,2.4C122.6,62.6,120.8,59.2,118.9,56.4z M146.2,76.1
		c-4.2,4.2-9.8,7.6-16.6,10.1l-2.8-4.2c6.7-2.2,12-5.2,15.8-9c4.1-4.1,6.4-11,7-20.8l4.6,1.5c1.3,0.4,1.3,1,0,1.8
		C153.1,65,150.4,71.9,146.2,76.1z M130.2,53.6l4.2-2.2c2.2,2.8,4.1,6.1,5.7,9.8l-4.6,2.2C133.8,59.5,132,56.2,130.2,53.6z"/>
	<path class="st1" d="M188.2,69.3c-7.7-3.9-14.1-6.6-19-7.9v22.8h-5V40.5h4.4c1.8,0.1,2,0.7,0.7,1.8V56c7.1,2,14.4,4.8,21.7,8.3
		L188.2,69.3z M187.8,50.1c-2.5-3.1-5-5.5-7.4-7.4l2.8-2.2c2.5,1.9,5,4.4,7.4,7.4L187.8,50.1z M193,45.9c-1.9-2.5-4.3-4.9-7.2-7.2
		l2.8-2.2c2.5,1.8,4.9,4.2,7.2,7.2L193,45.9z"/>
	<path class="st1" d="M204.2,78.8c18.2-4.2,27.8-13.9,28.7-29.1H200v-4.8h33.2l3.1-0.7l2.4,2.2c-0.6,19.4-10.8,31.8-30.6,37.2
		L204.2,78.8z"/>
	<path class="st1" d="M264.8,65.8c-3.9,5.8-9.3,11.2-16.2,16.2l-3.7-3.3c7-4.4,13-10.1,18.2-17.3h-16.8v-4.2h18.6v-10h3.9
		c1.3,0.1,1.5,0.7,0.4,1.5v8.5h15.3v4.2h-15.3v21c0,2.6-1.2,3.9-3.7,3.9H260l-0.7-4.2h3.1c1.6,0,2.4-0.7,2.4-2V65.8z"/>
	<path class="st1" d="M290.2,64.3v-4.8H339v4.8H290.2z"/>
	<path class="st1" d="M372,69.3c-7.7-3.9-14.1-6.6-19-7.9v22.8h-5V40.5h4.4c1.8,0.1,2,0.7,0.7,1.8V56c7.1,2,14.4,4.8,21.7,8.3
		L372,69.3z M371.5,50.1c-2.5-3.1-5-5.5-7.4-7.4l2.8-2.2c2.5,1.9,5,4.4,7.4,7.4L371.5,50.1z M376.8,45.9c-1.9-2.5-4.3-4.9-7.2-7.2
		l2.8-2.2c2.5,1.8,4.9,4.2,7.2,7.2L376.8,45.9z"/>
	<path class="st1" d="M393.8,68.9l4.4-1.8l1.1,3.7l-12.9,5.9c-0.1,1-0.5,1.2-1.1,0.7l-2.4-4.8l6.6-2.2V53.8h-5.2v-4.2h5.2V38.1h4.2
		c1.2,0.1,1.2,0.6,0.2,1.3v10.3h5v4.2h-5v15H393.8z M410.5,61.9h-5.7v5.2c0,7.9-3.4,14.1-10.1,18.8l-2.8-3.9
		c5.7-3.6,8.5-9.1,8.5-16.4V47h16.4V36.8L421,37c1.2,0.1,1.2,0.6,0.2,1.3V47h12v4.2h-11.8l0.2,4.4c0.1,4.2,0.4,8.4,0.9,12.5
		c2.3-4.8,3.9-9.1,4.8-12.9l4.4,2.2c0.3,0.6,0.1,1-0.7,1.1c-2.3,6.6-4.6,11.5-6.8,14.9c2.2,4.4,3.9,6.6,5.2,6.6
		c0.4,0,0.9-2.1,1.3-6.3l4.2,2.4c-0.9,6.4-2.3,9.6-4.2,9.6c-3.6,0-6.9-2.8-9.6-8.5c-3.6,4.5-7.5,7.8-11.6,9.8l-2.4-3.7
		c5.5-3.4,9.5-6.9,12-10.5c-1-4.2-1.7-9.6-2-16.2l-0.2-5.2h-12.2V58h9.6l-0.2,13.1c0,3.5-1.1,5.2-3.3,5.2h-4.2l-0.4-4.2h3.1
		c0.6,0,0.9-0.3,0.9-0.9L410.5,61.9z M426.2,38.5c2.6,1.3,4.6,3,5.9,5l-3.3,3.3c-1.5-2.2-3.4-3.9-5.7-5.2L426.2,38.5z"/>
	<path class="st1" d="M451.4,38.5h4.6c1.6,0.3,1.8,0.9,0.4,1.8l0.4,10.5c0.1,3.1,0.7,5.5,1.5,7.4c4.1-1.8,9.5-3.6,16.4-5.5l2.2,5.7
		c-13.9,2.5-23.1,6.1-27.8,10.7c-1.6,1.6-2.4,3.3-2.4,5c0,1.3,0.5,2.5,1.5,3.5s3.1,1.5,6.3,1.5h21V84h-21.2c-4.8,0-8.2-1-10.1-2.8
		c-1.9-1.9-2.8-4.1-2.8-6.6c0-3.2,1.2-6,3.5-8.3c1.8-1.8,4.7-3.8,8.8-6.1c-0.9-2.2-1.4-4.6-1.5-7.2L451.4,38.5z"/>
</g>
<g class="st0">
	<path class="st1" d="M69.7,133.2l-20.3,2.2l4.2,17.7l-4.8,1.1L44.6,136l-22.3,2.6l-0.7-4.6l21.9-2.4l-2.2-10.3l-14.9,1.8l-0.9-4.6
		L40,117l-2.2-10.1l4.6-0.9c1.3-0.1,1.5,0.4,0.7,1.5l1.8,8.8l16-2.2l0.9,4.6l-15.5,2l2.2,10.3l20.6-2.4L69.7,133.2z"/>
	<path class="st1" d="M92.2,126.6l17.9-4.4l1.1-0.7l3.5,3.5c0.6,0.6,0.4,1-0.7,1.3c-2.6,4.2-5.4,8.3-8.3,12.2l-3.7-2.4
		c2.3-3.1,4.5-6.3,6.6-9.6l-15.1,3.7l7.4,22.1l-4.4,1.5L89.3,131l-12.7,3.5l-1.5-4.4l12.7-2.8L84.4,117l4.6-0.9
		c1.3,0,1.5,0.5,0.7,1.5L92.2,126.6z"/>
	<path class="st1" d="M145,116.8h16.4l2.6,2.6c0,15.9-7.7,27.6-23,35.2l-4.2-4.2c14.1-6.4,21.3-16,21.4-28.9h-30.4l0.4,12.9h-5
		l-0.7-17.7h17.3v-10.9h4.4c1.8,0.1,2,0.7,0.7,1.8v9.2H145z M159.6,114.4c-1.9-2.2-4.2-4.5-7-7l2.6-2.6c2.3,1.6,4.7,3.9,7,7
		L159.6,114.4z M166.6,112.6c-2.3-2.8-4.7-5.1-7-7l2.6-2.6c2.3,1.6,4.7,3.9,7,7L166.6,112.6z"/>
	<path class="st1" d="M193.8,126.6v17.3h16v4.2h-35.7v-4.2h15.3v-17.3h-12.2v-4.2H206v4.2C206,126.6,193.8,126.6,193.8,126.6z"/>
	<path class="st1" d="M258.5,124.9c-7.7,16-20.7,24.5-38.9,25.4c-0.7,1.9-1.5,2-2.2,0.4l-1.8-5.7c19-0.4,31.7-8.2,38.3-23.4
		L258.5,124.9z M216.5,115.9l3.7-4.6c3.1,1.9,6.9,5,11.6,9.4l-4.2,4.2C223.7,121.2,220,118.2,216.5,115.9z"/>
	<path class="st1" d="M286.5,128.4h-21.9v-4.8h44.8v4.8h-17.9v2.8c0,9.2-3.3,16.8-9.8,22.8l-4.4-3.3c6.1-4.8,9.2-11.3,9.2-19.5
		L286.5,128.4L286.5,128.4z M272.5,115v-4.8h26.9v4.8H272.5z M308.4,113.7l-3.1,2.2c-2-2.9-4.1-5.5-6.1-7.9l3.1-2
		C304.1,108,306.2,110.5,308.4,113.7z M313.6,110.7l-3.1,2.2c-2.3-3.2-4.4-5.7-6.1-7.4l3.1-2.2C309.4,105.3,311.4,107.7,313.6,110.7
		z"/>
	<path class="st1" d="M337.9,154.6h-4.4v-20.3c-3.2,2.5-8,5.3-14.4,8.5l-3.1-3.7c13.9-6.7,23.3-14.1,28.4-22.1l3.7,2.8
		c0.9,0.7,0.6,1.2-0.9,1.5c-2.5,3.1-5.6,6.2-9.4,9.4L337.9,154.6L337.9,154.6z"/>
	<path class="st1" d="M354.1,124.4l4.4-2.2c2,2.8,3.9,6.1,5.5,10.1l-4.4,2.4C357.8,130.6,356,127.2,354.1,124.4z M381.4,144.1
		c-4.2,4.2-9.8,7.6-16.6,10.1L362,150c6.7-2.2,12-5.2,15.8-9c4.1-4.1,6.4-11,7-20.8l4.6,1.5c1.3,0.4,1.3,1,0,1.8
		C388.3,133,385.7,139.9,381.4,144.1z M365.5,121.6l4.2-2.2c2.2,2.8,4.1,6.1,5.7,9.8l-4.6,2.2C369,127.5,367.2,124.2,365.5,121.6z"
		/>
	<path class="st1" d="M409.9,127.3l-3.5,4.6c-4.4-3.2-8-5.5-10.9-7l3.3-4.6C402.4,122.2,406.1,124.5,409.9,127.3z M400.2,146.8
		c15.9-3.5,27.9-11.7,35.9-24.7l3.9,3.9c-7.4,12-19,20.4-34.6,25.4c-0.4,1.8-1.2,1.8-2.2,0.2L400.2,146.8z M416,114.4l-3.1,4.6
		c-3.9-2.8-7.6-5.1-10.9-7l2.8-4.6C408.8,109.6,412.5,111.9,416,114.4z"/>
	<path class="st1" d="M485.3,148.5H446v-4.2h23.6l0.4-16.4h-17.9v-4.2h22.3l-0.4,20.6h11.4v4.2H485.3z"/>
	<path class="st1" d="M518.8,110.2h20.8v11.4h-4.4v-7.2h-37.4v7.2h-4.4v-11.4h20.3v-4.8h4.8c1.2,0.1,1.2,0.6,0.2,1.3v3.5H518.8z
		 M496.5,152.9l-2-4.4c9.5-3.1,17.4-7.7,23.8-13.8c-0.4-0.7-1-1.5-1.5-2.2c-6.6,5.1-12.9,8.5-19,10.3l-1.8-3.9c7-1.9,13-4.9,18.2-9
		c-0.6-0.9-1.2-1.5-2-1.8c-5.4,3.4-11,5.5-16.8,6.6l-1.5-4.2c8.2-1.2,15-3.9,20.6-8.1h-14.2v-4.2H533v4.2h-13.1
		c-1.2,1.3-2.7,2.6-4.6,3.9c2.5,1.6,4.4,3.4,5.9,5.2c5.2-2.9,9-5.6,11.2-8.1l4.2,3.1c0.6,0.9,0.3,1.2-0.9,1.1
		c-3.5,2.2-7.3,4.2-11.4,6.1c3.8,5,9.2,9.3,16.2,12.9l-3.1,4.8c-6-4.2-10.6-8.6-13.8-13.1c0.7,5.8,0.6,10.1-0.4,12.7
		c-0.9,2.3-2.8,3.5-5.9,3.5h-5.7l-0.9-4.8h5c2.2,0,3.4-0.9,3.7-2.8c0.3-2.2,0.3-4.8,0-7.9C512.9,144.9,505.2,149.5,496.5,152.9z"/>
</g>
<path id="三角形_1" class="st2" d="M428,324.5L400.4,342v-34.9L428,324.5z"/>
<path id="三角形_1_のコピー" class="st2" d="M510,324.5L482.4,342v-34.9L510,324.5z"/>
<path id="三角形_1_のコピー_2" class="st2" d="M469,324.5L441.4,342v-34.9L469,324.5z"/>
<path id="詳細はこちら" class="st3" d="M555.8,308.4c1.1,1.6,1.9,3.3,2.6,5.1l3.3-1.5c-0.6-1.9-1.6-3.7-2.8-5.2L555.8,308.4z
	 M566.4,306.1l-2.5,7.7h-10.5v3.1h8v5.4h-7.2v3.1h7.2v5.7h-8.7v3.1h8.7v9.4h3.3v-9.4h9.7v-3.1h-9.7v-5.7h7.7v-3.1h-7.7V317h8.7v-3.1
	H567l2.6-5.7c0.8-0.1,0.9-0.4,0.5-0.8L566.4,306.1z M550.7,310.4v-3.1h-11v3.1H550.7z M552,316v-3.1h-14.8v3.1H552z M550.7,318.8
	h-11v3.1h11V318.8z M550.7,324.7h-11v3.1h11V324.7z M542.1,339.1v-5.9h6.2v5.9H542.1z M542.1,342.2h6.2v1.1h3.3V330h-12.8v13.8h3.3
	V342.2L542.1,342.2z M590.8,308.6c0.8-0.1,0.9-0.4,0.5-0.8l-3.1-1.8c-1.6,3.3-3.1,6-4.4,8.2l-1.6-1l-1.8,2.8
	c2.2,1.3,4.3,2.8,6.1,4.6l-2.1,2.6l-4.6,0.2l0.5,3.1c0.2,1.1,0.6,1.1,1.1,0.2l6.4-0.7v17.9h3.3v-18.2l3.9-0.3l1,2.6l2.8-1.6V343h3.3
	v-2h11.5v1.6h3.3v-33h-18v16.2c-0.9-2.5-2.1-4.8-3.8-6.9l-2.6,1.3c0.6,0.8,1.2,1.7,1.6,2.6l-6.1,0.3c2.5-3.1,5.1-6.3,7.7-9.8
	c0.8-0.1,0.9-0.4,0.5-0.8l-3-1.8c-2.1,3.4-3.7,5.8-4.8,7.2l-2.5-2.1C587.5,313.4,589.1,311,590.8,308.6L590.8,308.6L590.8,308.6z
	 M597.7,337.1c-0.4-2.9-1.3-5.6-2.6-8.2l-3.1,1c1.1,2.7,1.9,5.5,2.3,8.4L597.7,337.1z M583.9,340.6c0.8-3.3,1.4-6.6,1.6-10
	c0.8-0.5,0.9-0.9,0.5-1l-3.8-0.7c-0.3,3.5-0.9,7-1.8,10.3L583.9,340.6z M606.2,312.7v10.8h-4.3v-10.8H606.2L606.2,312.7z
	 M613.4,312.7v10.8H609v-10.8H613.4L613.4,312.7z M613.4,326.6v11.2H609v-11.2H613.4L613.4,326.6z M606.2,326.6v11.2h-4.3v-11.2
	H606.2L606.2,326.6z M659.6,318.9v-3.4l-8.9,0.5c-0.1-2.2-0.2-4.4-0.3-6.7c1-0.7,0.9-1.1-0.3-1.3h-3.4c0.3,2.4,0.5,5.1,0.7,8.2
	l-11.8,0.7v3.4l12.1-0.8c0.2,3.8,0.2,7.5,0,11.3c-1.4-0.3-2.8-0.5-4.3-0.5c-2.6,0-4.6,0.7-5.9,2c-0.9,1-1.4,2.3-1.3,3.6
	c-0.1,1.6,0.5,3.1,1.6,4.3c3.4,2.6,8.1,2.6,11.5,0c1.2-1.3,1.9-3,1.8-4.8c2.7,1.3,5.2,2.8,7.5,4.6l2-3.1c-2.9-2.1-6.1-3.8-9.5-5.1
	c0.2-4.2,0.2-8.3,0-12.5L659.6,318.9z M630,340.6c-0.6-3.3-0.9-6.7-0.8-10c0-9.2,0.6-15.7,1.8-19.5c0.9-0.4,0.9-0.8,0.2-1.1
	l-3.6-0.7c-1.3,5.4-2,12.5-2,21.3c0,3.6,0.2,7.1,0.7,10.7L630,340.6z M647.6,334c0.2,1.3-0.2,2.7-1,3.8c-0.9,0.8-2.1,1.3-3.3,1.1
	c-1.3,0.1-2.5-0.3-3.4-1.1c-0.5-0.5-0.7-1.3-0.7-2c0-0.6,0.3-1.2,0.8-1.6c0.9-0.7,2.1-1.1,3.3-1C644.8,333.3,646.2,333.6,647.6,334
	L647.6,334L647.6,334z M694.4,339.4v-3.6h-17.9c-2.3,0-3.8-0.4-4.6-1.1c-0.7-0.6-1-1.5-1-2.5c0.1-1.3,0.4-2.6,0.8-3.8l-3.8-0.5
	c-0.4,1.4-0.6,2.8-0.7,4.3c-0.1,1.9,0.6,3.8,2,5.2c1.3,1.3,3.7,2,7.1,2H694.4L694.4,339.4z M669.8,315.3h21.3v-3.6h-21.3V315.3
	L669.8,315.3z M711.1,339.1l1.1,3.6c8.1,0.1,13.3-1,15.8-3.4c1.5-1.6,2.4-3.7,2.3-5.9c0.1-2.3-0.7-4.4-2.3-6.1
	c-1.8-1.7-4.5-2.6-8.2-2.6c-3.7,0.1-7.4,1.2-10.7,3c0.8-3.2,1.5-6.4,2.3-9.7c3.4-0.3,7.3-0.8,11.6-1.3l-0.7-3.4
	c-3.4,0.7-6.9,1.2-10.3,1.5c0.4-1.7,0.8-3.5,1.1-5.2c1.1-0.5,1-1-0.3-1.3l-3.1-0.8c-0.2,2.6-0.6,5.2-1.1,7.7
	c-3.6,0.3-6.7,0.5-9.2,0.5l0.5,3.3c2.7,0,5.4-0.2,8-0.5c-0.8,3.9-1.8,7.7-3,11.5c-0.5,0.8-1.1,1.5-1.8,2.1l3,2.3
	c2-1.8,4.2-3.4,6.6-4.8c2.4-1.1,4.9-1.7,7.5-1.6c2.2,0,3.8,0.5,4.8,1.5c1,0.9,1.6,2.2,1.6,3.6s-0.5,2.8-1.5,3.8
	C723.3,338.5,718.6,339.3,711.1,339.1L711.1,339.1L711.1,339.1z M747.9,342.4h3c6.1,0,10.3-1.1,12.5-3.3c1.8-1.7,2.8-4.1,2.8-6.6
	c0.1-2.1-0.7-4.1-2.1-5.6c-1.9-1.8-4.4-2.8-7.1-2.6c-4.8,0-9.5,1.7-13.1,4.9l1.1-10.7c1.1-0.4,1.1-0.9,0-1.3l-3.4-0.7l-1.8,17.6
	l3.3,0.3c3.9-4.7,8.3-7.1,13.1-7.1c2.3,0,3.9,0.5,4.9,1.5c1,0.9,1.6,2.2,1.6,3.6c0,1.6-0.7,3-1.8,4.1c-1.4,1.4-4.9,2.1-10.3,2.1
	h-3.9L747.9,342.4z M744.6,307.4l-1.5,3c4.2,1.2,8.3,2.6,12.3,4.3l1.6-3.3C751.8,309.5,747.6,308.2,744.6,307.4L744.6,307.4
	L744.6,307.4z"/>
</svg>
