<?xml version="1.0" encoding="UTF-8"?>
<svg id="_レイヤー_1" data-name="レイヤー 1" xmlns="http://www.w3.org/2000/svg" viewBox="0 0 185.24 21.43">
  <defs>
    <style>
      .cls-1 {
        fill: #5f5a51;
      }
    </style>
  </defs>
  <path class="cls-1" d="M.9,16.62L1.42,3.33c.02-.77,.04-1.18,.04-1.22,0-.43-.1-.75-.31-.95s-.59-.32-1.14-.36L.14,.36H6.82l-.13,.43c-.57,0-1,.17-1.29,.52s-.46,1.05-.51,2.13l-.38,8.29,6.2-7.2c.8-.93,1.3-1.57,1.49-1.93s.28-.67,.28-.94c0-.2-.09-.37-.26-.52s-.5-.27-.98-.35l.16-.43h4.38v.43c-.38,.09-.68,.23-.91,.41-.34,.26-.88,.8-1.59,1.64L1.42,16.62H.9Z"/>
  <path class="cls-1" d="M19.28,5.39l-2.4,8.33c-.13,.48-.2,.79-.2,.94,0,.09,.04,.17,.11,.24s.14,.11,.22,.11c.13,0,.27-.06,.4-.18,.35-.29,.77-.81,1.27-1.57l.4,.23c-1.18,2.05-2.43,3.08-3.76,3.08-.51,0-.91-.14-1.21-.43s-.45-.65-.45-1.08c0-.29,.07-.66,.2-1.1l1.63-5.6c.16-.54,.23-.95,.23-1.22,0-.17-.07-.32-.22-.46s-.35-.2-.61-.2c-.12,0-.26,0-.42,.01l.15-.47,3.97-.64h.7Zm-.73-5.39c.48,0,.89,.17,1.22,.5s.5,.74,.5,1.22-.17,.88-.5,1.22-.74,.5-1.22,.5-.87-.17-1.21-.5-.5-.74-.5-1.22,.17-.88,.5-1.22,.74-.5,1.21-.5Z"/>
  <path class="cls-1" d="M28.84,13.43l.35,.32c-.76,.91-1.5,1.57-2.24,1.99-.98,.56-1.99,.84-3.04,.84-.7,0-1.33-.15-1.87-.45s-.94-.72-1.2-1.27-.39-1.1-.39-1.67c0-1.28,.35-2.54,1.04-3.78s1.61-2.22,2.75-2.94,2.26-1.08,3.36-1.08c.88,0,1.55,.2,1.99,.59s.67,.88,.67,1.45c0,.52-.17,.97-.5,1.34s-.71,.55-1.12,.55c-.36,0-.66-.12-.9-.35s-.36-.51-.36-.83c0-.42,.21-.79,.63-1.1,.29-.22,.43-.41,.43-.57,0-.14-.06-.25-.18-.34-.16-.12-.36-.19-.61-.19-.66,0-1.27,.27-1.85,.8-.77,.7-1.35,1.59-1.76,2.67s-.61,2.1-.61,3.07c0,.77,.21,1.38,.62,1.83s.91,.69,1.48,.69c.5,0,1.04-.13,1.62-.39s1.13-.65,1.66-1.17Z"/>
  <path class="cls-1" d="M37.36,2.53l-.94,3.19h1.54l-.41,1.35h-1.51l-1.96,6.8c-.12,.42-.19,.74-.19,.96,0,.1,.04,.19,.11,.26s.15,.11,.23,.11c.13,0,.27-.05,.41-.16,.36-.27,.78-.75,1.25-1.43l.41,.26c-.54,.94-1.13,1.62-1.78,2.06s-1.29,.66-1.91,.66c-.53,0-.94-.13-1.24-.4s-.44-.61-.44-1.03c0-.45,.1-1.04,.3-1.75l1.85-6.34h-1.59l.23-.87c1-.37,1.84-.8,2.53-1.29s1.52-1.29,2.48-2.38h.61Z"/>
  <path class="cls-1" d="M45.04,5.39c.62,0,1.2,.14,1.74,.43s.95,.68,1.23,1.19,.42,1.07,.42,1.69c0,1.27-.35,2.53-1.06,3.8s-1.64,2.26-2.79,2.99-2.32,1.1-3.49,1.1c-1.06,0-1.88-.32-2.47-.95s-.87-1.41-.87-2.32c0-1.09,.22-2.1,.65-3.05s.98-1.78,1.65-2.48,1.44-1.28,2.3-1.72,1.77-.66,2.7-.66Zm-.48,.62c-.41,0-.76,.12-1.03,.36-.55,.49-1.16,1.64-1.85,3.45s-1.03,3.44-1.03,4.89c0,.36,.11,.66,.33,.89s.48,.35,.77,.35,.57-.09,.81-.28c.34-.28,.77-.91,1.27-1.89s.91-2.06,1.23-3.25,.48-2.27,.48-3.25c0-.41-.1-.72-.29-.94s-.42-.33-.68-.33Z"/>
  <path class="cls-1" d="M54.83,5.39l-1.77,6.59c1.45-3.21,2.55-5.19,3.28-5.93,.43-.44,.88-.66,1.36-.66,.33,0,.59,.12,.8,.36s.3,.58,.3,1.01c0,.76-.18,1.39-.55,1.91-.23,.33-.5,.49-.79,.49-.31,0-.55-.14-.7-.43s-.27-.46-.33-.51-.13-.08-.2-.08c-.08,0-.16,.02-.25,.07-.17,.09-.4,.32-.67,.69s-.62,.97-1.03,1.82-.72,1.57-.95,2.16-.54,1.71-.95,3.37h-2.84l1.93-7.77c.14-.58,.21-.96,.21-1.15,0-.21-.04-.38-.11-.49s-.18-.2-.3-.26-.4-.08-.8-.08l.11-.34,3.54-.77h.7Z"/>
  <path class="cls-1" d="M64.61,5.39l-2.4,8.33c-.13,.48-.2,.79-.2,.94,0,.09,.04,.17,.11,.24s.14,.11,.22,.11c.13,0,.27-.06,.4-.18,.35-.29,.77-.81,1.27-1.57l.4,.23c-1.18,2.05-2.43,3.08-3.76,3.08-.51,0-.91-.14-1.21-.43s-.45-.65-.45-1.08c0-.29,.07-.66,.2-1.1l1.63-5.6c.16-.54,.23-.95,.23-1.22,0-.17-.07-.32-.22-.46s-.35-.2-.61-.2c-.12,0-.26,0-.42,.01l.15-.47,3.97-.64h.7Zm-.73-5.39c.48,0,.89,.17,1.22,.5s.5,.74,.5,1.22-.17,.88-.5,1.22-.74,.5-1.22,.5-.87-.17-1.21-.5-.5-.74-.5-1.22,.17-.88,.5-1.22,.74-.5,1.21-.5Z"/>
  <path class="cls-1" d="M76.65,5.55l-2.27,7.79-.23,.95c-.02,.12-.04,.2-.04,.26,0,.09,.03,.18,.1,.25s.13,.11,.21,.11c.16,0,.39-.12,.68-.38,.12-.1,.4-.46,.84-1.08l.41,.21c-.55,1.02-1.15,1.76-1.78,2.22s-1.31,.7-2.03,.7c-.45,0-.79-.12-1.02-.35s-.35-.52-.35-.87c0-.3,.12-.87,.38-1.7l.28-.95c-.91,1.55-1.78,2.66-2.61,3.3-.48,.38-1,.56-1.55,.56-.72,0-1.24-.29-1.56-.88s-.48-1.26-.48-2c0-1.1,.34-2.37,1.01-3.79s1.55-2.57,2.65-3.44c.9-.72,1.74-1.08,2.53-1.08,.44,0,.79,.13,1.05,.38s.46,.72,.59,1.39l.42-1.44,2.78-.16Zm-3.75,2.23c0-.63-.1-1.09-.29-1.37-.14-.2-.33-.29-.57-.29s-.49,.12-.75,.35c-.52,.48-1.09,1.47-1.69,2.95s-.91,2.76-.91,3.84c0,.41,.07,.71,.21,.9s.29,.28,.45,.28c.35,0,.71-.2,1.07-.61,.52-.58,.98-1.29,1.39-2.12,.73-1.47,1.1-2.77,1.1-3.91Z"/>
  <path class="cls-1" d="M91.04,5.39c.62,0,1.2,.14,1.74,.43s.95,.68,1.23,1.19,.42,1.07,.42,1.69c0,1.27-.35,2.53-1.06,3.8s-1.64,2.26-2.79,2.99-2.32,1.1-3.49,1.1c-1.06,0-1.88-.32-2.47-.95s-.87-1.41-.87-2.32c0-1.09,.22-2.1,.65-3.05s.98-1.78,1.65-2.48,1.44-1.28,2.3-1.72,1.77-.66,2.7-.66Zm-.48,.62c-.41,0-.76,.12-1.03,.36-.55,.49-1.16,1.64-1.85,3.45s-1.03,3.44-1.03,4.89c0,.36,.11,.66,.33,.89s.48,.35,.77,.35,.57-.09,.81-.28c.34-.28,.77-.91,1.27-1.89s.91-2.06,1.23-3.25,.48-2.27,.48-3.25c0-.41-.1-.72-.29-.94s-.42-.33-.68-.33Z"/>
  <path class="cls-1" d="M101.44,7.09l-1.37,5.41c-.64,2.55-1.27,4.41-1.88,5.55s-1.32,2-2.14,2.55-1.75,.83-2.81,.83c-.66,0-1.15-.13-1.46-.38s-.47-.55-.47-.9c0-.32,.13-.6,.39-.83s.6-.35,1.02-.35c.35,0,.62,.09,.81,.27s.28,.41,.28,.68c0,.25-.06,.44-.18,.56s-.18,.2-.18,.24l.06,.08s.1,.06,.16,.06c.23,0,.43-.07,.6-.22,.41-.37,.72-.81,.93-1.34,.14-.36,.41-1.31,.81-2.85l2.39-9.36h-1.63l.39-1.37c.59,0,1.01-.07,1.28-.22s.55-.51,.84-1.05c.86-1.59,1.77-2.72,2.72-3.41s2.02-1.03,3.19-1.03c.75,0,1.29,.14,1.63,.43s.51,.66,.51,1.12c0,.41-.11,.73-.34,.97s-.51,.36-.84,.36c-.31,0-.57-.1-.77-.29s-.3-.43-.3-.7c0-.2,.06-.4,.19-.62s.19-.37,.19-.45c0-.09-.03-.16-.09-.21s-.13-.08-.23-.08c-.46,0-.93,.29-1.42,.86-.8,.91-1.44,2.36-1.92,4.34h1.7l-.41,1.37h-1.65Z"/>
  <path class="cls-1" d="M121.07,16.25h-12.69l.13-.43c.76,0,1.31-.15,1.66-.44s.67-.95,.97-1.97l2.95-10.21c.16-.56,.25-1,.25-1.32s-.12-.56-.35-.75-.7-.3-1.38-.33l.13-.43h7.63l-.13,.43c-.73,.02-1.28,.18-1.65,.49s-.69,.95-.97,1.91l-2.7,9.34c-.34,1.19-.52,1.91-.52,2.17,0,.16,.09,.3,.26,.44s.46,.21,.85,.21c1.3,0,2.55-.3,3.76-.89s2.23-1.48,3.06-2.66h.49l-1.76,4.45Z"/>
  <path class="cls-1" d="M131.7,5.39c.62,0,1.2,.14,1.74,.43s.95,.68,1.23,1.19,.42,1.07,.42,1.69c0,1.27-.35,2.53-1.06,3.8s-1.64,2.26-2.79,2.99-2.32,1.1-3.49,1.1c-1.06,0-1.88-.32-2.47-.95s-.87-1.41-.87-2.32c0-1.09,.22-2.1,.65-3.05s.98-1.78,1.65-2.48,1.44-1.28,2.3-1.72,1.77-.66,2.7-.66Zm-.48,.62c-.41,0-.76,.12-1.03,.36-.55,.49-1.16,1.64-1.85,3.45s-1.03,3.44-1.03,4.89c0,.36,.11,.66,.33,.89s.48,.35,.77,.35,.57-.09,.81-.28c.34-.28,.77-.91,1.27-1.89s.91-2.06,1.23-3.25,.48-2.27,.48-3.25c0-.41-.1-.72-.29-.94s-.42-.33-.68-.33Z"/>
  <path class="cls-1" d="M142.22,5.39l-1.45,5.03c.98-1.47,1.71-2.47,2.19-3.01,.71-.78,1.32-1.31,1.84-1.59s1-.42,1.45-.42c.41,0,.75,.15,1.04,.45s.43,.69,.43,1.18c0,.44-.09,.97-.28,1.59l-1.5,5c-.12,.44-.19,.72-.19,.86,0,.08,.03,.15,.09,.21s.12,.09,.18,.09c.08,0,.16-.03,.25-.09,.27-.23,.55-.55,.83-.96,.07-.11,.18-.27,.34-.49l.45,.27c-1.15,1.93-2.36,2.89-3.62,2.89-.48,0-.86-.12-1.14-.38s-.41-.56-.41-.94c0-.33,.09-.82,.28-1.46l1.46-5c.1-.33,.15-.57,.15-.73,0-.09-.04-.16-.11-.23s-.15-.1-.25-.1c-.3,0-.66,.2-1.08,.61-1.08,1.03-2.12,2.57-3.13,4.61l-.96,3.48h-2.99l2.19-7.52c.21-.74,.32-1.27,.32-1.58,0-.13-.03-.24-.09-.33s-.16-.16-.3-.21-.41-.08-.8-.08l.13-.45,3.95-.69h.71Z"/>
  <path class="cls-1" d="M162.25,0l-3.81,13.11c-.24,.82-.36,1.32-.36,1.49,0,.09,.03,.16,.09,.22s.13,.09,.2,.09c.13,0,.29-.07,.46-.2,.29-.22,.64-.63,1.05-1.24l.42,.22c-1.1,1.92-2.31,2.88-3.63,2.88-.47,0-.83-.12-1.08-.37s-.38-.56-.38-.94,.1-.89,.3-1.57l.35-1.2c-.98,1.73-1.82,2.88-2.54,3.45-.55,.42-1.08,.63-1.59,.63-.59,0-1.08-.24-1.48-.71s-.6-1.17-.6-2.09c0-1.16,.26-2.31,.77-3.45s1.11-2.08,1.79-2.84,1.32-1.3,1.93-1.62,1.22-.49,1.81-.49c.3,0,.58,.06,.81,.19s.51,.36,.81,.7l.87-2.92c.21-.72,.32-1.23,.32-1.55,0-.19-.07-.35-.21-.48s-.33-.2-.56-.2c-.11,0-.25,.01-.41,.04l.12-.46,3.86-.71h.7Zm-5.16,7.43c0-.48-.09-.82-.28-1.04s-.41-.33-.66-.33-.52,.13-.81,.39c-.55,.5-1.13,1.51-1.74,3.02s-.91,2.78-.91,3.81c0,.38,.07,.65,.2,.83s.28,.27,.45,.27c.27,0,.55-.12,.82-.38,.66-.59,1.32-1.62,1.96-3.06s.97-2.62,.97-3.51Z"/>
  <path class="cls-1" d="M169.04,5.39c.62,0,1.2,.14,1.74,.43s.95,.68,1.23,1.19,.42,1.07,.42,1.69c0,1.27-.35,2.53-1.06,3.8s-1.64,2.26-2.79,2.99-2.32,1.1-3.49,1.1c-1.06,0-1.88-.32-2.47-.95s-.87-1.41-.87-2.32c0-1.09,.22-2.1,.65-3.05s.98-1.78,1.65-2.48,1.44-1.28,2.3-1.72,1.77-.66,2.7-.66Zm-.48,.62c-.41,0-.76,.12-1.03,.36-.55,.49-1.16,1.64-1.85,3.45s-1.03,3.44-1.03,4.89c0,.36,.11,.66,.33,.89s.48,.35,.77,.35,.57-.09,.81-.28c.34-.28,.77-.91,1.27-1.89s.91-2.06,1.23-3.25,.48-2.27,.48-3.25c0-.41-.1-.72-.29-.94s-.42-.33-.68-.33Z"/>
  <path class="cls-1" d="M179.57,5.39l-1.45,5.03c.98-1.47,1.71-2.47,2.19-3.01,.71-.78,1.32-1.31,1.84-1.59s1-.42,1.45-.42c.41,0,.75,.15,1.04,.45s.43,.69,.43,1.18c0,.44-.09,.97-.28,1.59l-1.5,5c-.12,.44-.19,.72-.19,.86,0,.08,.03,.15,.09,.21s.12,.09,.18,.09c.08,0,.16-.03,.25-.09,.27-.23,.55-.55,.83-.96,.07-.11,.18-.27,.34-.49l.45,.27c-1.15,1.93-2.36,2.89-3.62,2.89-.48,0-.86-.12-1.14-.38s-.41-.56-.41-.94c0-.33,.09-.82,.28-1.46l1.46-5c.1-.33,.15-.57,.15-.73,0-.09-.04-.16-.11-.23s-.15-.1-.25-.1c-.3,0-.66,.2-1.08,.61-1.08,1.03-2.12,2.57-3.13,4.61l-.96,3.48h-2.99l2.19-7.52c.21-.74,.32-1.27,.32-1.58,0-.13-.03-.24-.09-.33s-.16-.16-.3-.21-.41-.08-.8-.08l.13-.45,3.95-.69h.71Z"/>
</svg>