<?xml version="1.0" encoding="UTF-8"?>
<svg id="_レイヤー_1" data-name="レイヤー 1" xmlns="http://www.w3.org/2000/svg" viewbox="0 0 370.48 42.87">
  <defs>
    <style>
      .cls-1 {
        fill: #fff;
      }
    </style>
  </defs>
  <path class="cls-1" d="M1.8,33.23L2.84,6.66c.05-1.55,.07-2.36,.07-2.44,0-.86-.21-1.49-.62-1.9S1.11,1.67,0,1.59L.28,.73H13.64l-.26,.87c-1.14,0-2,.34-2.59,1.03s-.93,2.11-1.02,4.27l-.75,16.57,12.4-14.39c1.61-1.86,2.6-3.15,2.98-3.87s.56-1.34,.56-1.88c0-.39-.17-.74-.52-1.04s-1-.54-1.97-.69l.33-.87h8.77v.87c-.75,.19-1.36,.46-1.83,.82-.69,.52-1.75,1.61-3.19,3.28L2.84,33.23H1.8Z"/>
  <path class="cls-1" d="M38.55,10.78l-4.8,16.66c-.27,.95-.4,1.58-.4,1.88,0,.17,.07,.33,.21,.48s.29,.22,.45,.22c.27,0,.53-.12,.8-.35,.7-.58,1.55-1.62,2.53-3.14l.8,.47c-2.36,4.11-4.87,6.16-7.52,6.16-1.02,0-1.82-.29-2.43-.86s-.9-1.29-.9-2.17c0-.58,.13-1.31,.4-2.2l3.26-11.2c.31-1.08,.47-1.89,.47-2.44,0-.34-.15-.65-.45-.91s-.7-.4-1.22-.4c-.23,0-.52,0-.84,.02l.3-.94,7.95-1.29h1.41Zm-1.45-10.78c.97,0,1.79,.34,2.45,1.01s1,1.48,1,2.44-.34,1.77-1.01,2.44-1.48,1.01-2.44,1.01-1.74-.34-2.41-1.01-1.01-1.48-1.01-2.44,.33-1.77,1-2.44,1.47-1.01,2.43-1.01Z"/>
  <path class="cls-1" d="M57.68,26.86l.7,.63c-1.52,1.81-3.01,3.14-4.48,3.98-1.95,1.12-3.98,1.69-6.07,1.69-1.41,0-2.65-.3-3.74-.9s-1.89-1.45-2.4-2.53-.77-2.2-.77-3.34c0-2.56,.7-5.08,2.09-7.56s3.23-4.44,5.51-5.88,4.52-2.17,6.73-2.17c1.77,0,3.09,.39,3.98,1.17s1.34,1.75,1.34,2.91c0,1.05-.34,1.94-1.01,2.67s-1.42,1.1-2.25,1.1c-.72,0-1.32-.23-1.79-.7s-.71-1.02-.71-1.66c0-.84,.42-1.58,1.27-2.2,.58-.44,.87-.82,.87-1.15,0-.28-.12-.51-.35-.68-.31-.25-.72-.38-1.22-.38-1.31,0-2.55,.53-3.7,1.59-1.53,1.41-2.7,3.19-3.52,5.34s-1.22,4.2-1.22,6.14c0,1.53,.41,2.75,1.24,3.67s1.81,1.37,2.95,1.37c1,0,2.08-.26,3.25-.77s2.27-1.3,3.32-2.34Z"/>
  <path class="cls-1" d="M74.72,5.06l-1.88,6.38h3.07l-.82,2.7h-3.02l-3.91,13.59c-.25,.84-.38,1.48-.38,1.92,0,.2,.07,.38,.21,.53s.3,.22,.47,.22c.27,0,.54-.11,.82-.33,.72-.55,1.55-1.5,2.51-2.86l.82,.52c-1.08,1.88-2.27,3.25-3.56,4.12s-2.57,1.31-3.82,1.31c-1.06,0-1.89-.27-2.47-.81s-.88-1.22-.88-2.05c0-.91,.2-2.07,.61-3.49l3.7-12.68h-3.19l.47-1.73c2-.73,3.69-1.59,5.06-2.58s3.03-2.57,4.97-4.76h1.22Z"/>
  <path class="cls-1" d="M90.07,10.78c1.23,0,2.39,.29,3.48,.86s1.91,1.36,2.46,2.38,.83,2.14,.83,3.38c0,2.53-.71,5.06-2.12,7.59s-3.28,4.53-5.59,5.99-4.64,2.19-6.98,2.19c-2.12,0-3.77-.63-4.93-1.9s-1.75-2.81-1.75-4.64c0-2.17,.43-4.21,1.3-6.11s1.97-3.55,3.3-4.97,2.87-2.56,4.61-3.45,3.53-1.32,5.39-1.32Zm-.96,1.24c-.83,0-1.52,.24-2.06,.73-1.09,.98-2.33,3.29-3.7,6.9s-2.06,6.88-2.06,9.79c0,.72,.22,1.31,.66,1.78s.95,.7,1.55,.7,1.15-.19,1.62-.56c.69-.56,1.53-1.82,2.53-3.79s1.82-4.12,2.46-6.49,.96-4.54,.96-6.5c0-.81-.2-1.44-.59-1.89s-.84-.67-1.36-.67Z"/>
  <path class="cls-1" d="M109.66,10.78l-3.54,13.17c2.91-6.42,5.09-10.38,6.56-11.86,.86-.88,1.77-1.31,2.72-1.31,.66,0,1.19,.24,1.59,.71s.61,1.15,.61,2.03c0,1.52-.37,2.79-1.1,3.82-.47,.66-.99,.98-1.57,.98-.62,0-1.09-.29-1.41-.87s-.53-.92-.66-1.02-.26-.15-.4-.15c-.16,0-.32,.05-.49,.14-.34,.19-.79,.64-1.35,1.37s-1.24,1.94-2.05,3.64-1.45,3.14-1.9,4.32-1.09,3.43-1.9,6.74h-5.67l3.87-15.54c.28-1.16,.42-1.92,.42-2.3,0-.42-.07-.75-.22-.98s-.35-.41-.61-.52-.79-.16-1.61-.16l.21-.68,7.08-1.55h1.41Z"/>
  <path class="cls-1" d="M129.21,10.78l-4.8,16.66c-.27,.95-.4,1.58-.4,1.88,0,.17,.07,.33,.21,.48s.29,.22,.45,.22c.27,0,.53-.12,.8-.35,.7-.58,1.55-1.62,2.53-3.14l.8,.47c-2.36,4.11-4.87,6.16-7.52,6.16-1.02,0-1.82-.29-2.43-.86s-.9-1.29-.9-2.17c0-.58,.13-1.31,.4-2.2l3.26-11.2c.31-1.08,.47-1.89,.47-2.44,0-.34-.15-.65-.45-.91s-.7-.4-1.22-.4c-.23,0-.52,0-.84,.02l.3-.94,7.95-1.29h1.41Zm-1.45-10.78c.97,0,1.79,.34,2.45,1.01s1,1.48,1,2.44-.34,1.77-1.01,2.44-1.48,1.01-2.44,1.01-1.74-.34-2.41-1.01-1.01-1.48-1.01-2.44,.33-1.77,1-2.44,1.47-1.01,2.43-1.01Z"/>
  <path class="cls-1" d="M153.3,11.11l-4.55,15.59-.47,1.9c-.05,.23-.07,.41-.07,.52,0,.19,.07,.35,.2,.49s.27,.21,.41,.21c.33,0,.78-.25,1.36-.75,.23-.2,.8-.92,1.69-2.16l.82,.42c-1.11,2.03-2.29,3.51-3.55,4.44s-2.61,1.39-4.07,1.39c-.89,0-1.57-.23-2.04-.69s-.7-1.04-.7-1.75c0-.61,.25-1.74,.75-3.4l.56-1.9c-1.81,3.11-3.55,5.31-5.23,6.61-.97,.75-2,1.12-3.09,1.12-1.44,0-2.48-.59-3.12-1.77s-.96-2.51-.96-4c0-2.2,.67-4.73,2.02-7.58s3.11-5.14,5.3-6.88c1.8-1.44,3.48-2.16,5.06-2.16,.88,0,1.58,.25,2.11,.76s.92,1.43,1.17,2.78l.84-2.88,5.55-.33Zm-7.5,4.45c0-1.27-.2-2.18-.59-2.74-.28-.39-.66-.59-1.15-.59s-.98,.23-1.5,.7c-1.05,.97-2.18,2.93-3.39,5.89s-1.82,5.52-1.82,7.68c0,.83,.14,1.43,.41,1.79s.57,.55,.9,.55c.7,0,1.41-.41,2.13-1.22,1.03-1.16,1.96-2.57,2.79-4.24,1.47-2.94,2.2-5.55,2.2-7.83Z"/>
  <path class="cls-1" d="M182.09,10.78c1.23,0,2.39,.29,3.48,.86s1.91,1.36,2.46,2.38,.83,2.14,.83,3.38c0,2.53-.71,5.06-2.12,7.59s-3.28,4.53-5.59,5.99c-2.31,1.46-4.64,2.19-6.98,2.19-2.12,0-3.77-.63-4.93-1.9s-1.75-2.81-1.75-4.64c0-2.17,.43-4.21,1.3-6.11s1.97-3.55,3.3-4.97,2.87-2.56,4.61-3.45,3.53-1.32,5.39-1.32Zm-.96,1.24c-.83,0-1.52,.24-2.06,.73-1.09,.98-2.33,3.29-3.7,6.9s-2.06,6.88-2.06,9.79c0,.72,.22,1.31,.66,1.78s.95,.7,1.55,.7,1.15-.19,1.62-.56c.69-.56,1.53-1.82,2.53-3.79s1.82-4.12,2.46-6.49,.96-4.54,.96-6.5c0-.81-.2-1.44-.59-1.89s-.84-.67-1.36-.67Z"/>
  <path class="cls-1" d="M202.87,14.18l-2.74,10.83c-1.28,5.11-2.53,8.81-3.75,11.11s-2.64,4-4.28,5.1-3.5,1.65-5.61,1.65c-1.33,0-2.3-.25-2.93-.76s-.94-1.11-.94-1.79c0-.64,.26-1.2,.77-1.66s1.2-.7,2.04-.7c.7,0,1.24,.18,1.62,.54s.56,.81,.56,1.36c0,.5-.12,.87-.35,1.11s-.35,.4-.35,.48l.12,.16c.09,.08,.2,.12,.33,.12,.47,0,.87-.15,1.2-.45,.83-.73,1.45-1.62,1.85-2.67,.28-.72,.82-2.62,1.62-5.7l4.78-18.73h-3.26l.77-2.74c1.17,.02,2.02-.13,2.55-.45s1.09-1.02,1.69-2.11c1.72-3.17,3.53-5.45,5.44-6.82s4.03-2.06,6.38-2.06c1.5,0,2.59,.29,3.27,.87s1.02,1.33,1.02,2.25c0,.81-.23,1.46-.68,1.93s-1.02,.71-1.69,.71c-.62,0-1.14-.2-1.55-.59s-.61-.86-.61-1.41c0-.39,.13-.8,.39-1.24s.39-.73,.39-.89c0-.17-.06-.31-.18-.42s-.27-.16-.46-.16c-.92,0-1.87,.57-2.84,1.71-1.59,1.83-2.88,4.72-3.84,8.67h3.4l-.82,2.74h-3.3Z"/>
  <path class="cls-1" d="M242.13,32.51h-25.38l.26-.87c1.52,0,2.62-.29,3.32-.88s1.34-1.9,1.93-3.95l5.91-20.41c.33-1.12,.49-2.01,.49-2.65s-.23-1.12-.7-1.5-1.39-.59-2.77-.66l.26-.87h15.26l-.26,.87c-1.47,.03-2.57,.36-3.29,.98s-1.37,1.9-1.93,3.82l-5.39,18.68c-.69,2.38-1.03,3.82-1.03,4.34,0,.31,.18,.61,.53,.88s.92,.41,1.7,.41c2.59,0,5.1-.59,7.51-1.78s4.46-2.96,6.13-5.32h.98l-3.52,8.91Z"/>
  <path class="cls-1" d="M263.39,10.78c1.23,0,2.39,.29,3.48,.86s1.91,1.36,2.46,2.38,.83,2.14,.83,3.38c0,2.53-.71,5.06-2.12,7.59s-3.28,4.53-5.59,5.99-4.64,2.19-6.98,2.19c-2.12,0-3.77-.63-4.93-1.9s-1.75-2.81-1.75-4.64c0-2.17,.43-4.21,1.3-6.11s1.97-3.55,3.3-4.97,2.87-2.56,4.61-3.45,3.53-1.32,5.39-1.32Zm-.96,1.24c-.83,0-1.52,.24-2.06,.73-1.09,.98-2.33,3.29-3.7,6.9s-2.06,6.88-2.06,9.79c0,.72,.22,1.31,.66,1.78s.95,.7,1.55,.7,1.15-.19,1.62-.56c.69-.56,1.53-1.82,2.53-3.79s1.82-4.12,2.46-6.49,.96-4.54,.96-6.5c0-.81-.2-1.44-.59-1.89s-.84-.67-1.36-.67Z"/>
  <path class="cls-1" d="M284.44,10.78l-2.91,10.05c1.95-2.94,3.41-4.95,4.38-6.02,1.42-1.56,2.65-2.62,3.68-3.19s2-.84,2.91-.84c.81,0,1.51,.3,2.09,.9s.87,1.39,.87,2.36c0,.88-.19,1.94-.56,3.19l-3,10.01c-.25,.88-.38,1.45-.38,1.71,0,.16,.06,.3,.18,.42s.24,.19,.36,.19c.16,0,.32-.06,.49-.19,.55-.45,1.1-1.09,1.66-1.92,.14-.22,.37-.55,.68-.98l.89,.54c-2.3,3.86-4.71,5.79-7.24,5.79-.97,0-1.73-.25-2.27-.75s-.82-1.12-.82-1.88c0-.66,.19-1.63,.56-2.93l2.93-10.01c.2-.66,.3-1.14,.3-1.45,0-.17-.07-.32-.21-.46s-.3-.2-.49-.2c-.59,0-1.31,.41-2.16,1.22-2.16,2.06-4.24,5.13-6.26,9.21l-1.92,6.96h-5.98l4.38-15.05c.42-1.48,.63-2.54,.63-3.16,0-.27-.06-.49-.19-.67s-.33-.32-.61-.42-.81-.15-1.59-.15l.26-.89,7.9-1.38h1.43Z"/>
  <path class="cls-1" d="M324.49,0l-7.62,26.23c-.48,1.64-.73,2.63-.73,2.98,0,.17,.06,.32,.19,.45s.26,.19,.4,.19c.27,0,.57-.13,.91-.4,.58-.44,1.28-1.27,2.11-2.48l.84,.45c-2.2,3.84-4.62,5.77-7.27,5.77-.94,0-1.66-.25-2.17-.74s-.76-1.12-.76-1.89,.2-1.78,.61-3.14l.7-2.39c-1.95,3.45-3.65,5.75-5.09,6.89-1.09,.84-2.16,1.27-3.19,1.27-1.17,0-2.16-.48-2.96-1.43s-1.21-2.34-1.21-4.17c0-2.33,.52-4.62,1.55-6.89s2.22-4.16,3.57-5.67,2.64-2.6,3.87-3.25,2.43-.97,3.62-.97c.61,0,1.15,.12,1.63,.38s1.02,.72,1.63,1.41l1.73-5.84c.42-1.44,.63-2.47,.63-3.09,0-.38-.14-.7-.42-.96s-.66-.4-1.12-.4c-.22,0-.49,.02-.82,.07l.23-.91,7.71-1.43h1.41Zm-10.31,14.86c0-.95-.19-1.65-.56-2.09s-.81-.66-1.31-.66-1.04,.26-1.62,.77c-1.11,1-2.27,3.01-3.48,6.04s-1.82,5.57-1.82,7.63c0,.75,.13,1.3,.4,1.66s.56,.54,.89,.54c.55,0,1.09-.25,1.64-.75,1.33-1.19,2.64-3.23,3.93-6.13s1.93-5.24,1.93-7.02Z"/>
  <path class="cls-1" d="M338.09,10.78c1.23,0,2.39,.29,3.48,.86s1.91,1.36,2.46,2.38,.83,2.14,.83,3.38c0,2.53-.71,5.06-2.12,7.59s-3.28,4.53-5.59,5.99-4.64,2.19-6.98,2.19c-2.12,0-3.77-.63-4.93-1.9s-1.75-2.81-1.75-4.64c0-2.17,.43-4.21,1.3-6.11s1.97-3.55,3.3-4.97,2.87-2.56,4.61-3.45,3.53-1.32,5.39-1.32Zm-.96,1.24c-.83,0-1.52,.24-2.06,.73-1.09,.98-2.33,3.29-3.7,6.9s-2.06,6.88-2.06,9.79c0,.72,.22,1.31,.66,1.78s.95,.7,1.55,.7,1.15-.19,1.62-.56c.69-.56,1.53-1.82,2.53-3.79s1.82-4.12,2.46-6.49,.96-4.54,.96-6.5c0-.81-.2-1.44-.59-1.89s-.84-.67-1.36-.67Z"/>
  <path class="cls-1" d="M359.13,10.78l-2.91,10.05c1.95-2.94,3.41-4.95,4.38-6.02,1.42-1.56,2.65-2.62,3.68-3.19s2-.84,2.91-.84c.81,0,1.51,.3,2.09,.9s.87,1.39,.87,2.36c0,.88-.19,1.94-.56,3.19l-3,10.01c-.25,.88-.38,1.45-.38,1.71,0,.16,.06,.3,.18,.42s.24,.19,.36,.19c.16,0,.32-.06,.49-.19,.55-.45,1.1-1.09,1.66-1.92,.14-.22,.37-.55,.68-.98l.89,.54c-2.3,3.86-4.71,5.79-7.24,5.79-.97,0-1.73-.25-2.27-.75s-.82-1.12-.82-1.88c0-.66,.19-1.63,.56-2.93l2.93-10.01c.2-.66,.3-1.14,.3-1.45,0-.17-.07-.32-.21-.46s-.3-.2-.49-.2c-.59,0-1.31,.41-2.16,1.22-2.16,2.06-4.24,5.13-6.26,9.21l-1.92,6.96h-5.98l4.38-15.05c.42-1.48,.63-2.54,.63-3.16,0-.27-.06-.49-.19-.67s-.33-.32-.61-.42-.81-.15-1.59-.15l.26-.89,7.9-1.38h1.43Z"/>
</svg>