<?xml version="1.0" encoding="utf-8"?>
<!-- Generator: Adobe Illustrator 27.0.1, SVG Export Plug-In . SVG Version: 6.00 Build 0)  -->
<svg version="1.1" id="グループ_1" xmlns="http://www.w3.org/2000/svg" xmlns:xlink="http://www.w3.org/1999/xlink" x="0px"
	 y="0px" viewBox="0 0 800 350" style="enable-background:new 0 0 800 350;" xml:space="preserve">
<style type="text/css">
	.st0{enable-background:new    ;}
	.st1{fill:#FFFFFF;}
	.st2{fill-rule:evenodd;clip-rule:evenodd;fill:#FFFFFF;stroke:#FFFFFF;}
	.st3{fill-rule:evenodd;clip-rule:evenodd;fill:#FFFFFF;}
</style>
<image style="overflow:visible;enable-background:new    ;" width="800" height="350" id="背景" xlink:href="72060090.png" >
</image>
<image style="overflow:visible;enable-background:new    ;" width="845" height="845" id="dorset" xlink:href="72060097.png"  transform="matrix(1 0 0 1 -23 -225)">
</image>
<g class="st0">
	<path class="st1" d="M53.4,67.3c-7.7-3.9-14.1-6.6-19-7.9v22.8h-5V38.5h4.4c1.8,0.1,2,0.7,0.7,1.8V54c7.1,2,14.4,4.8,21.7,8.3
		L53.4,67.3z M52.9,48.1c-2.5-3.1-5-5.5-7.4-7.4l2.8-2.2c2.5,1.9,5,4.4,7.4,7.4L52.9,48.1z M58.2,43.9c-1.9-2.5-4.3-4.9-7.2-7.2
		l2.8-2.2c2.5,1.8,4.9,4.2,7.2,7.2L58.2,43.9z"/>
	<path class="st1" d="M65,62.3v-4.8h48.8v4.8H65z"/>
	<path class="st1" d="M152,69.1l-4.2-2.8c3.2-3.9,6.2-8,9-12.2l-18.2,3.3v16.2c0,2,1,3.1,3.1,3.1h20.1l-0.7,4.8h-20.8
		c-4.5,0-6.8-2.3-6.8-7V58.2l-13.1,2.6l-1.8-5l14.9-2.6V38.7h4.6c1.3,0.3,1.5,0.9,0.4,1.8v12l19.7-3.3l1.8-1.1l3.9,3.9
		c0.6,0.7,0.3,1.2-0.9,1.3C158.8,59.8,155.1,65,152,69.1z"/>
	<path class="st1" d="M169.8,54.4l4.4-2.2c2,2.8,3.9,6.1,5.5,10.1l-4.4,2.4C173.5,60.6,171.6,57.2,169.8,54.4z M197.1,74.1
		c-4.2,4.2-9.8,7.6-16.6,10.1l-2.8-4.2c6.7-2.2,12-5.2,15.8-9c4.1-4.1,6.4-11,7-20.8l4.6,1.5c1.3,0.4,1.3,1,0,1.8
		C203.9,63,201.3,69.9,197.1,74.1z M181.1,51.6l4.2-2.2c2.2,2.8,4.1,6.1,5.7,9.8l-4.6,2.2C184.6,57.5,182.9,54.2,181.1,51.6z"/>
	<path class="st1" d="M242.2,62.3l-2.6,5c-7.7-3.9-14.1-6.6-19-7.9v22.8h-5V38.5h4.4c1.8,0.1,2,0.7,0.7,1.8V54
		C227.6,56,234.9,58.8,242.2,62.3z"/>
	<path class="st1" d="M261.8,57.3l-3.5,4.6c-4.4-3.2-8-5.5-10.9-7l3.3-4.6C254.3,52.2,258,54.5,261.8,57.3z M252.2,76.8
		c15.9-3.5,27.9-11.7,35.9-24.7L292,56c-7.4,12-19,20.4-34.6,25.4c-0.4,1.8-1.2,1.8-2.2,0.2L252.2,76.8z M268,44.4l-3.1,4.6
		c-3.9-2.8-7.6-5.1-10.9-7l2.8-4.6C260.8,39.6,264.5,41.9,268,44.4z"/>
	<path class="st1" d="M314.8,56.6l17.9-4.4l1.1-0.7l3.5,3.5c0.6,0.6,0.4,1-0.7,1.3c-2.6,4.2-5.4,8.3-8.3,12.2l-3.7-2.4
		c2.3-3.1,4.5-6.3,6.6-9.6l-15.1,3.7l7.4,22.1l-4.4,1.5l-7.2-22.8l-12.7,3.5l-1.5-4.4l12.7-2.8L306.9,47l4.6-0.9
		c1.3,0,1.5,0.5,0.7,1.5L314.8,56.6z"/>
	<path class="st1" d="M342.8,62.3v-4.8h48.8v4.8H342.8z"/>
	<path class="st1" d="M400.5,37.2h45.1v4.2h-40.7v26.5c0,6.3-1.5,11.8-4.6,16.6l-3.5-3.3c2.5-4.4,3.7-8.8,3.7-13.3V37.2z
		 M418.2,56.8v8.1h-3.7v-7.2c-1.2,1.9-3.6,4.4-7.2,7.4l-2.2-3.9c3.9-2.6,7-5.9,9.2-9.8h-7.2v-3.5h7.4v-4.8h3.5
		c1.2,0.1,1.2,0.6,0.2,1.3v3.5h5.9v3.5h-5.9v1.8c2.3,0.6,4.4,1.6,6.3,3.1l-2,3.9C422,59.5,420.6,58.5,418.2,56.8z M424.4,65.4h4.2
		c1.2,0.1,1.2,0.6,0.2,1.3v2.6h12.5v4.2h-12.5v5.7h18.4v4.2h-42v-4.2h7.4V68.9h4.2c1.2,0.1,1.2,0.6,0.2,1.3v9h7.4V65.4z M423.3,60.3
		c3.6-2.5,6.6-5.5,9-9h-6.1v-3.5h6.3v-5h3.5c1.2,0.1,1.2,0.6,0.2,1.3v3.7h8.5v3.5h-8.1c2.5,3.6,5.8,6.4,10.1,8.3l-2,4.2
		c-3.5-1.9-6.3-4.4-8.5-7.7v8.8h-3.7v-7.9c-2,2.6-4.4,4.9-7,6.8L423.3,60.3z"/>
	<path class="st1" d="M480.4,43.1h16.8v20.3h-4.4V61h-12.5c0,5-0.7,9.3-2,12.9c5.1,3.2,12.9,4.9,23.4,5l-1.3,5.2
		c-10.6-0.4-18.9-2.6-24.7-6.3c-4.5,3.5-11.5,5.8-20.8,7l-1.3-4.6c9.8-1.5,15.8-3.3,18.2-5.5c-2.8-2.6-4.9-5.5-6.3-8.5l3.7-2.2
		c1.6,2.9,3.4,5.2,5.5,7c0.9-2.8,1.3-6.1,1.3-10.1h-13.3v3.3h-4.4V43.1H476V35h4.2c1.2,0.1,1.2,0.6,0.2,1.3V43.1z M476,47.2h-13.3
		v9.6H476V47.2z M492.8,56.8v-9.6h-12.5v9.6H492.8z"/>
	<path class="st1" d="M508.8,52.9v-4.2h6.1V35.6h4.2c1.2,0.1,1.2,0.6,0.2,1.3v11.8h5.9v4.2h-5.9v32.4h-4.4V52.9H508.8z M543.2,36.3
		v5.2h7.2c-1.3-1.3-2.9-2.5-4.8-3.7l2.6-2.6c2.3,1.2,4.2,2.5,5.5,3.9l-2.4,2.4h6.1V45h-14.2v3.3h11.2v17.5h-4.2v3.3h9v4.2h-9v8.3
		c0,2.5-1.2,3.7-3.5,3.7h-3.7l-0.7-4.2h2.8c0.4,0,0.7-0.2,0.7-0.7v-7.2h-12c1.9,1.3,3.6,3.1,5,5.2l-3.5,3.5
		c-1.3-1.9-2.9-3.8-4.8-5.7l3.1-3.1h-10.3v-4.2h22.5v-3.3h-9h-9V48.3h10.9V45h-13.6v-3.5h13.6V35h4.2
		C544.1,35.1,544.2,35.6,543.2,36.3z M538.8,51.8h-7.2v3.5h7.2V51.8z M538.8,58.8h-7.2v3.5h7.2V58.8z M550.6,51.8h-7.4v3.5h7.4V51.8
		z M550.6,58.8h-7.4v3.5h7.4V58.8z"/>
	<path class="st1" d="M571.2,45.9h3.5V34.8h4.2c1.2,0.1,1.2,0.6,0.2,1.3v9.8h6.1v4.2H579v12l5.7-2.2l1.1,3.7l-6.8,2.8v18.8h-4.4V68
		l-6.8,2.2c-0.1,1-0.5,1.2-1.1,0.7l-1.5-4.8l9.4-2.6V50.1h-3.7c-0.3,2.8-0.9,5.5-1.8,8.1l-4.2-1.5c1.8-5.1,2.6-10.7,2.6-16.8
		l4.4,0.7c0.4,0.4,0.3,0.9-0.4,1.3L571.2,45.9z M613.8,45.5l-0.2,26.9c0,7.7-2.2,11.6-6.6,11.6h-6.3l-0.9-4.8h5.5
		c2.6,0.3,3.9-2,3.9-6.8l0.2-22.8H607c0.1,12.8-6.2,24.6-19,35.4l-2.8-3.9c10.8-8,16.7-18.5,17.7-31.5h-3.5
		c-0.6,8.9-5,16.8-13.3,23.6l-3.1-3.7c7.3-5.7,11.4-12.3,12.2-19.9h-3.5c-1.6,3.9-3.6,7.3-6.1,10.1l-3.7-2.6
		c5.1-6.3,8.2-13.5,9.4-21.7l4.6,0.9c0.6,0.6,0.4,1-0.7,1.1c-0.4,2.5-1.1,5.2-2,8.1H613.8z"/>
	<path class="st1" d="M625,53.3l-2.4,2.6l-2.8-3.7c5.4-5,9.1-10.6,11.2-17.1l4.4,0.7c0.6,0.4,0.4,1-0.7,1.5c3.2,2.6,5.9,5,8.1,7.2
		l-2.4,4.2c-3.2-3.6-5.6-6.2-7.2-7.7c-2,4.5-4.1,7.9-6.1,10.1h4.4v-5.5h4.2c1,0.1,1.1,0.6,0.2,1.3v4.2h5.7v17.5h-12.7v9.2l8.8-2
		c-0.6-1-1.5-2.4-2.6-4.2l3.7-2c2.3,3.1,4.5,6.6,6.6,10.7l-4.4,2.4c-0.7-1.8-1.4-3.1-2-3.9l-14.7,4.6c-0.1,0.7-0.6,0.9-1.3,0.4
		l-1.8-4.4l3.9-0.9V53.3z M628.7,54.7v3.3h9v-3.3H628.7z M628.7,61.4v3.7h9v-3.7H628.7z M666.1,64.1h-4.4v-0.9h-9.8V68h16.2v16h-4.4
		v-1.8h-11.8v2.8h-4.4V51.4h-4.4v-9.6h11.8v-5.9h4.2c1.5,0,1.5,0.4,0.2,1.3v4.6h12v9.6H667v-6.1h-19.5v5.2h18.6V64.1z M651.9,54v5.7
		h9.8V54H651.9z M651.9,78.7h11.8v-7.2h-11.8V78.7z"/>
</g>
<path id="三角形_1" class="st2" d="M428,324.5L400.4,342v-34.9L428,324.5z"/>
<path id="三角形_1_のコピー" class="st2" d="M510,324.5L482.4,342v-34.9L510,324.5z"/>
<path id="三角形_1_のコピー_2" class="st2" d="M469,324.5L441.4,342v-34.9L469,324.5z"/>
<path id="詳細はこちら" class="st3" d="M555.8,308.4c1.1,1.6,1.9,3.3,2.6,5.1l3.3-1.5c-0.6-1.9-1.6-3.7-2.8-5.2L555.8,308.4z
	 M566.4,306.1l-2.5,7.7h-10.5v3.1h8v5.4h-7.2v3.1h7.2v5.7h-8.7v3.1h8.7v9.4h3.3v-9.4h9.7v-3.1h-9.7v-5.7h7.7v-3.1h-7.7V317h8.7v-3.1
	h-6.4l2.6-5.7c0.8-0.1,0.9-0.4,0.5-0.8L566.4,306.1z M550.7,310.4v-3.1h-11v3.1H550.7z M552,316v-3.1h-14.8v3.1H552z M550.7,318.8
	h-11v3.1h11V318.8z M550.7,324.7h-11v3.1h11V324.7z M542.1,339.1v-5.9h6.2v5.9H542.1z M542.1,342.2h6.2v1.1h3.3v-13.3h-12.8v13.8
	h3.3L542.1,342.2L542.1,342.2z M590.8,308.6c0.8-0.1,0.9-0.4,0.5-0.8l-3.1-1.8c-1.6,3.3-3.1,6-4.4,8.2l-1.6-1l-1.8,2.8
	c2.2,1.3,4.3,2.8,6.1,4.6l-2.1,2.6l-4.6,0.2l0.5,3.1c0.2,1.1,0.6,1.1,1.1,0.2l6.4-0.7v17.9h3.3v-18.2l3.9-0.3l1,2.6l2.8-1.6v16.6
	h3.3v-2h11.5v1.6h3.3v-33h-18v16.2c-0.9-2.5-2.1-4.8-3.8-6.9l-2.6,1.3c0.6,0.8,1.2,1.7,1.6,2.6l-6.1,0.3c2.5-3.1,5.1-6.3,7.7-9.8
	c0.8-0.1,0.9-0.4,0.5-0.8l-3-1.8c-2.1,3.4-3.7,5.8-4.8,7.2l-2.5-2.1C587.5,313.4,589.1,311,590.8,308.6L590.8,308.6L590.8,308.6z
	 M597.7,337.1c-0.4-2.9-1.3-5.6-2.6-8.2l-3.1,1c1.1,2.7,1.9,5.5,2.3,8.4L597.7,337.1z M583.9,340.6c0.8-3.3,1.4-6.6,1.6-10
	c0.8-0.5,0.9-0.9,0.5-1l-3.8-0.7c-0.3,3.5-0.9,7-1.8,10.3L583.9,340.6z M606.2,312.7v10.8h-4.3v-10.8L606.2,312.7L606.2,312.7z
	 M613.4,312.7v10.8H609v-10.8L613.4,312.7L613.4,312.7z M613.4,326.6v11.2H609v-11.2L613.4,326.6L613.4,326.6z M606.2,326.6v11.2
	h-4.3v-11.2L606.2,326.6L606.2,326.6z M659.6,318.9v-3.4l-8.9,0.5c-0.1-2.2-0.2-4.4-0.3-6.7c1-0.7,0.9-1.1-0.3-1.3h-3.4
	c0.3,2.4,0.5,5.1,0.7,8.2l-11.8,0.7v3.4l12.1-0.8c0.2,3.8,0.2,7.5,0,11.3c-1.4-0.3-2.8-0.5-4.3-0.5c-2.6,0-4.6,0.7-5.9,2
	c-0.9,1-1.4,2.3-1.3,3.6c-0.1,1.6,0.5,3.1,1.6,4.3c3.4,2.6,8.1,2.6,11.5,0c1.2-1.3,1.9-3,1.8-4.8c2.7,1.3,5.2,2.8,7.5,4.6l2-3.1
	c-2.9-2.1-6.1-3.8-9.5-5.1c0.2-4.2,0.2-8.3,0-12.5L659.6,318.9z M630,340.6c-0.6-3.3-0.9-6.7-0.8-10c0-9.2,0.6-15.7,1.8-19.5
	c0.9-0.4,0.9-0.8,0.2-1.1l-3.6-0.7c-1.3,5.4-2,12.5-2,21.3c0,3.6,0.2,7.1,0.7,10.7L630,340.6z M647.6,334c0.2,1.3-0.2,2.7-1,3.8
	c-0.9,0.8-2.1,1.3-3.3,1.1c-1.3,0.1-2.5-0.3-3.4-1.1c-0.5-0.5-0.7-1.3-0.7-2c0-0.6,0.3-1.2,0.8-1.6c0.9-0.7,2.1-1.1,3.3-1
	C644.8,333.3,646.2,333.6,647.6,334L647.6,334L647.6,334z M694.4,339.4v-3.6h-17.9c-2.3,0-3.8-0.4-4.6-1.1c-0.7-0.6-1-1.5-1-2.5
	c0.1-1.3,0.4-2.6,0.8-3.8l-3.8-0.5c-0.4,1.4-0.6,2.8-0.7,4.3c-0.1,1.9,0.6,3.8,2,5.2c1.3,1.3,3.7,2,7.1,2L694.4,339.4L694.4,339.4z
	 M669.8,315.3h21.3v-3.6h-21.3L669.8,315.3L669.8,315.3z M711.1,339.1l1.1,3.6c8.1,0.1,13.3-1,15.8-3.4c1.5-1.6,2.4-3.7,2.3-5.9
	c0.1-2.3-0.7-4.4-2.3-6.1c-1.8-1.7-4.5-2.6-8.2-2.6c-3.7,0.1-7.4,1.2-10.7,3c0.8-3.2,1.5-6.4,2.3-9.7c3.4-0.3,7.3-0.8,11.6-1.3
	l-0.7-3.4c-3.4,0.7-6.9,1.2-10.3,1.5c0.4-1.7,0.8-3.5,1.1-5.2c1.1-0.5,1-1-0.3-1.3l-3.1-0.8c-0.2,2.6-0.6,5.2-1.1,7.7
	c-3.6,0.3-6.7,0.5-9.2,0.5l0.5,3.3c2.7,0,5.4-0.2,8-0.5c-0.8,3.9-1.8,7.7-3,11.5c-0.5,0.8-1.1,1.5-1.8,2.1l3,2.3
	c2-1.8,4.2-3.4,6.6-4.8c2.4-1.1,4.9-1.7,7.5-1.6c2.2,0,3.8,0.5,4.8,1.5c1,0.9,1.6,2.2,1.6,3.6c0,1.4-0.5,2.8-1.5,3.8
	C723.3,338.5,718.6,339.3,711.1,339.1L711.1,339.1L711.1,339.1z M747.9,342.4h3c6.1,0,10.3-1.1,12.5-3.3c1.8-1.7,2.8-4.1,2.8-6.6
	c0.1-2.1-0.7-4.1-2.1-5.6c-1.9-1.8-4.4-2.8-7.1-2.6c-4.8,0-9.5,1.7-13.1,4.9l1.1-10.7c1.1-0.4,1.1-0.9,0-1.3l-3.4-0.7l-1.8,17.6
	l3.3,0.3c3.9-4.7,8.3-7.1,13.1-7.1c2.3,0,3.9,0.5,4.9,1.5c1,0.9,1.6,2.2,1.6,3.6c0,1.6-0.7,3-1.8,4.1c-1.4,1.4-4.9,2.1-10.3,2.1
	h-3.9L747.9,342.4z M744.6,307.4l-1.5,3c4.2,1.2,8.3,2.6,12.3,4.3l1.6-3.3C751.8,309.5,747.6,308.2,744.6,307.4L744.6,307.4
	L744.6,307.4z"/>
</svg>
