<?xml version="1.0" encoding="UTF-8"?>
<svg id="_レイヤー_1" data-name="レイヤー 1" xmlns="http://www.w3.org/2000/svg" viewBox="0 0 546.13 384">
  <defs>
    <style>
      .cls-1 {
        fill: #da1725;
      }
    </style>
  </defs>
  <path class="cls-1" d="M534.72,60.08c-6.28-23.65-24.79-42.28-48.28-48.6C443.85,0,273.07,0,273.07,0c0,0-170.78,0-213.37,11.49-23.5,6.32-42,24.95-48.28,48.6C0,102.95,0,192.39,0,192.39c0,0,0,89.44,11.41,132.3,6.28,23.65,24.79,41.5,48.28,47.82,42.59,11.49,213.37,11.49,213.37,11.49,0,0,170.78,0,213.37-11.49,23.5-6.32,42-24.17,48.28-47.82,11.41-42.87,11.41-132.3,11.41-132.3,0,0,0-89.44-11.41-132.31ZM217.21,273.59V111.18l142.74,81.21-142.74,81.2h0Z"/>
</svg>